<svg width="33" height="33" viewBox="0 0 33 33" fill="none" xmlns="http://www.w3.org/2000/svg">
<rect width="20.2628" height="29.5246" rx="4" transform="matrix(0.99226 0.124268 -0.127605 0.991814 12.1594 0.534546)" fill="#979797"/>
<rect x="0.432369" y="0.558095" width="17.333" height="26.6198" rx="3.5" transform="matrix(0.992247 0.124364 -0.127509 0.991826 13.0699 1.54979)" stroke="white"/>
<ellipse cx="4.34202" cy="9.04785" rx="4.34202" ry="9.04785" transform="matrix(0.991853 0.127388 -0.13081 0.991407 17.1625 6.87402)" fill="white"/>
<rect width="20.2672" height="29.518" rx="4" transform="matrix(0.999803 -0.0197768 0.0203169 0.999795 5.88464 1.5918)" fill="#979797"/>
<rect x="0.510111" y="0.490058" width="17.337" height="26.6136" rx="3.5" transform="matrix(0.999805 -0.0196765 0.0204167 0.999793 6.85911 2.5348)" stroke="white"/>
<ellipse cx="4.34297" cy="9.04583" rx="4.34297" ry="9.04583" transform="matrix(0.999862 -0.0166315 0.0170858 0.999854 11.7711 7.14404)" fill="white"/>
<rect width="20.2603" height="29.5282" rx="4" transform="matrix(0.986847 -0.161575 0.165874 0.986161 0.010376 3.28857)" fill="#979797"/>
<rect x="0.576415" y="0.412332" width="17.3308" height="26.6232" rx="3.5" transform="matrix(0.986862 -0.161482 0.165968 0.986145 1.05968 4.17081)" stroke="white"/>
<ellipse cx="4.3415" cy="9.04897" rx="4.3415" ry="9.04897" transform="matrix(0.987364 -0.15847 0.162687 0.986678 6.64532 7.94739)" fill="white"/>
</svg>
