<svg width="32" height="32" viewBox="0 0 32 32" fill="none" xmlns="http://www.w3.org/2000/svg">
<circle cx="16" cy="16" r="16" fill="#979797"/>
<circle cx="16" cy="16" r="12" fill="white"/>
<path d="M13 22.5V10C15.3431 10 16.6569 10 19 10C19.8333 10 21.6 10.4 22 12V14C22.1667 14.6667 21.8 16 19 16C16.2 16 16.1667 16 16.5 16L21.5 22.5" stroke="#979797" stroke-width="4"/>
<path d="M15.5 14V19.5" stroke="white"/>
<path d="M15.8517 14.6765V20.1307" stroke="white" stroke-linecap="round"/>
<path d="M24.5157 21.3833C24.2531 21.4524 23.9953 21.5387 23.7357 21.6182C22.3911 22.0296 21.0334 22.3985 19.7024 22.8534C18.3402 23.3189 16.9733 23.8025 15.698 24.4772C15.4808 24.5921 15.2683 24.7116 15.0688 24.8541" stroke="white" stroke-linecap="round"/>
<path d="M20.7317 23.3666C20.3188 23.4632 19.9125 23.5851 19.4994 23.6797C19.1988 23.7486 18.879 23.7959 18.5947 23.9204C18.484 23.9689 18.0332 24.1684 18.4019 24.0291C18.6039 23.9528 18.7919 23.8578 19.0006 23.7972C19.2716 23.7185 19.5471 23.6547 19.814 23.5623C20.0053 23.4961 20.2116 23.3927 20.4186 23.3927" stroke="white" stroke-linecap="round"/>
</svg>
