<svg width="32" height="32" viewBox="0 0 32 32" fill="none" xmlns="http://www.w3.org/2000/svg">
<circle cx="16" cy="16" r="16" fill="#7400CC"/>
<circle cx="16" cy="16" r="12" fill="white"/>
<path d="M12 22.5V10C14.3431 10 15.6569 10 18 10C18.8333 10 20.6 10.4 21 12V14C21.1667 14.6667 20.8 16 18 16C15.2 16 15.1667 16 15.5 16L20.5 22.5" stroke="#7400CC" stroke-width="4"/>
<path d="M14.95 13.666C14.95 15.1127 14.956 16.5595 14.9486 18.0061C14.9432 19.049 14.92 20.0972 14.8006 21.1343C14.7778 21.3327 14.7344 21.5317 14.7344 21.7318" stroke="white" stroke-linecap="round"/>
<line x1="14.5" y1="16" x2="14.5" y2="19" stroke="white"/>
<path d="M23.3818 21.1227C23.2404 21.1916 23.0884 21.2347 22.9406 21.2877C22.1241 21.5802 21.3093 21.8736 20.4816 22.1333C19.9499 22.3002 19.4145 22.4542 18.8817 22.6171C17.8661 22.9274 16.8644 23.2795 15.8702 23.6525C15.0511 23.9599 14.2429 24.294 13.4481 24.6596C13.1965 24.7753 12.8694 24.9312 12.6194 25.0661C12.1176 25.3371 12.5968 25.091 12.1633 25.3424" stroke="white" stroke-linecap="round"/>
<path d="M19.4426 23.2008C19.2944 23.21 19.149 23.2867 19.0113 23.336C18.5931 23.4857 18.1686 23.621 17.7386 23.7326C17.6941 23.7442 17.5628 23.7797 17.6033 23.7581C17.6719 23.7215 17.745 23.6904 17.8158 23.6583C18.1763 23.4944 18.5683 23.3825 18.9475 23.2716C19.3315 23.1592 19.72 23.0642 20.1069 22.9628C20.1521 22.9509 20.3276 22.9068 20.1862 22.9713C19.9824 23.0642 19.7636 23.1378 19.5516 23.2093C19.3901 23.2638 19.2269 23.3294 19.0601 23.3665" stroke="white" stroke-linecap="round"/>
</svg>
