<?xml version="1.0" standalone="no"?>
<!DOCTYPE svg PUBLIC "-//W3C//DTD SVG 20010904//EN"
 "http://www.w3.org/TR/2001/REC-SVG-20010904/DTD/svg10.dtd">
<svg version="1.0" xmlns="http://www.w3.org/2000/svg"
 width="315.000000pt" height="467.000000pt" viewBox="0 0 315.000000 467.000000"
 preserveAspectRatio="xMidYMid meet">

<g transform="translate(0.000000,467.000000) scale(0.100000,-0.100000)"
fill="#000000" stroke="none">
<path d="M0 2352 l0 -2317 33 -18 c30 -16 125 -17 1572 -15 l1540 3 3 2333 2
2332 -1575 0 -1575 0 0 -2318z m380 2228 c0 -20 -50 -31 -71 -17 -10 8 -16 17
-12 20 10 11 83 8 83 -3z m53 -4 c3 -8 -1 -20 -9 -26 -8 -7 -14 -19 -14 -27 0
-8 -4 -11 -10 -8 -14 9 -12 43 3 60 16 18 24 18 30 1z m37 5 c0 -6 -4 -13 -10
-16 -5 -3 -10 1 -10 9 0 9 5 16 10 16 6 0 10 -4 10 -9z m-28 -63 c-9 -9 -12
-7 -12 12 0 19 3 21 12 12 9 -9 9 -15 0 -24z m2627 -41 c-2 -49 -2 -50 -8 -14
-3 21 -9 38 -13 37 -29 -1 -32 1 -18 10 8 5 11 10 5 10 -5 0 -3 4 5 9 23 15
30 3 29 -52z m-2314 19 c8 -11 119 -28 175 -28 109 -1 387 0 425 0 118 2 1311
1 1430 -1 123 -2 130 -3 130 -22 0 -19 -7 -20 -145 -21 -80 -1 -201 -5 -270
-8 -69 -4 -271 -6 -450 -6 -179 1 -653 2 -1055 3 l-730 2 -5 -170 c-5 -167 -5
-170 -27 -173 -14 -2 -23 2 -23 10 -2 54 0 237 2 301 3 88 10 96 73 98 69 2
168 -1 227 -8 86 -8 168 4 168 26 0 14 7 17 33 13 17 -2 37 -10 42 -16z m2145
-191 l2 30 9 -33 c5 -18 8 -78 7 -135 l-3 -102 -27 -3 c-30 -4 -31 -2 -22 22
8 21 21 20 27 -1 4 -14 5 -12 6 5 1 13 -5 22 -14 22 -10 0 -15 10 -15 34 0 37
-18 96 -29 96 -16 0 -53 39 -46 49 9 16 35 13 41 -4 9 -23 18 -18 34 18 l14
32 7 -30 7 -30 2 30z m-130 -5 c0 -5 -4 -10 -10 -10 -5 0 -10 5 -10 10 0 6 5
10 10 10 6 0 10 -4 10 -10z m-1620 -34 c0 -2 -7 -6 -15 -10 -8 -3 -15 -1 -15
4 0 6 7 10 15 10 8 0 15 -2 15 -4z m-990 -257 c0 -6 6 -9 14 -6 8 3 20 -1 27
-9 7 -9 21 -13 30 -11 10 3 26 -1 36 -9 10 -7 26 -14 37 -14 16 0 18 -5 12
-38 -8 -51 8 -102 40 -128 l27 -22 -43 -7 c-32 -5 -44 -13 -53 -34 -10 -21
-19 -26 -48 -27 -29 -1 -39 4 -54 27 -13 18 -22 24 -27 16 -5 -8 -9 -6 -14 6
-3 9 -14 17 -24 17 -26 0 -27 4 -35 111 -8 113 0 139 45 139 17 0 30 -5 30
-11z m960 1 c8 0 23 -7 32 -14 15 -11 16 -17 6 -43 l-11 -30 -24 28 c-44 51
-156 47 -169 -7 l-6 -24 -35 35 c-19 19 -41 35 -49 35 -32 0 -11 19 24 22 30
2 171 1 232 -2z m-685 -10 c-27 -12 -35 -12 -35 0 0 6 12 10 28 9 24 0 25 -1
7 -9z m10 -100 c8 -13 -21 -54 -49 -70 -22 -11 -27 -10 -50 15 -28 30 -33 41
-15 29 7 -4 9 0 5 14 -12 36 87 48 109 12z m202 7 c17 -13 -7 -58 -41 -76 -24
-13 -28 -12 -50 13 -32 34 -23 68 20 73 16 3 30 6 33 8 4 5 18 -2 38 -18z
m202 -38 c-33 -47 -54 -53 -83 -25 -28 25 -33 50 -14 62 27 17 74 20 95 6 l23
-14 -21 -29z m205 46 c16 -12 18 -19 8 -39 -6 -14 -23 -33 -37 -42 -25 -16
-26 -16 -50 10 -26 29 -32 42 -14 30 7 -4 9 0 5 14 -6 18 -1 23 26 31 44 12
40 12 62 -4z m209 0 c25 -18 15 -48 -25 -76 l-30 -22 -30 32 c-22 24 -25 31
-12 31 13 0 14 3 5 14 -10 11 -5 16 26 24 21 5 40 10 43 11 3 0 13 -6 23 -14z
m211 -4 c16 -18 17 -22 3 -41 -8 -12 -25 -29 -37 -37 -20 -14 -23 -13 -43 8
-12 13 -23 33 -25 46 -2 18 3 24 25 29 15 3 33 7 38 9 19 6 22 5 39 -14z m418
3 c14 -13 15 -20 5 -37 -15 -26 -48 -56 -62 -57 -17 0 -40 33 -42 61 -4 41 65
63 99 33z m199 6 c34 -19 16 -63 -39 -94 -19 -11 -64 41 -57 65 5 16 18 22 73
38 2 1 12 -4 23 -9z m213 -9 c17 -18 17 -21 0 -46 -9 -14 -26 -31 -37 -37 -17
-8 -25 -5 -49 21 -16 17 -24 31 -19 31 6 0 11 6 11 14 0 7 15 18 33 24 44 14
42 14 61 -7z m210 4 c17 -13 18 -18 6 -40 -7 -14 -24 -32 -38 -41 -22 -15 -25
-14 -48 7 -36 34 -24 73 26 82 14 2 27 5 30 5 3 1 14 -5 24 -13z m212 -6 c11
-13 14 -23 8 -27 -6 -4 -13 -14 -16 -22 -3 -9 -18 -22 -33 -30 -24 -13 -28
-13 -36 2 -5 10 -15 23 -23 30 -20 20 -4 51 30 55 16 3 31 6 33 9 8 8 18 4 37
-17z m-1039 0 c16 -16 -7 -60 -40 -78 -22 -12 -27 -10 -50 13 -22 22 -25 31
-17 51 8 21 16 25 53 25 24 0 48 -5 54 -11z m-305 -94 l27 -30 -45 -2 c-25 -1
-44 2 -42 5 2 4 10 19 17 35 8 15 15 26 15 24 1 -1 13 -16 28 -32z m-222 -6
c0 -12 -7 -19 -20 -19 -23 0 -24 4 -8 29 14 23 28 18 28 -10z m1575 -1319 l0
-1175 -1155 0 -1155 0 -3 1178 -2 1177 1157 -2 1158 -3 0 -1175z m333 1033
l-2 -108 -3 88 c-2 53 -8 85 -13 82 -14 -9 -12 13 3 30 6 8 13 14 15 15 1 0 1
-48 0 -107z m-1 -285 c-3 -8 -6 -5 -6 6 -1 11 2 17 5 13 3 -3 4 -12 1 -19z
m-2904 -41 c26 -28 36 -54 25 -65 -8 -8 -8 -18 -1 -35 9 -19 8 -26 -6 -34 -11
-7 -23 -8 -32 -2 -8 5 -24 9 -36 9 -16 0 -25 8 -29 25 -9 38 3 75 26 75 10 0
22 9 25 20 7 23 12 25 28 7z m-51 -341 c-2 -9 5 -19 15 -23 49 -19 67 -60 39
-89 -19 -18 -38 -18 -34 0 2 8 -6 21 -17 29 -14 11 -20 28 -21 61 -1 31 2 46
10 43 6 -2 10 -12 8 -21z m18 -286 c11 17 15 9 25 -52 3 -22 12 -38 19 -38 8
0 16 -13 19 -29 4 -17 14 -32 25 -35 10 -4 24 -23 31 -44 11 -32 10 -42 -8
-77 -10 -22 -17 -44 -14 -48 3 -5 -3 -14 -13 -21 -12 -9 -15 -19 -9 -32 16
-36 16 -112 0 -118 -8 -3 -15 -16 -15 -29 0 -35 -20 -88 -31 -81 -5 3 -10 -5
-10 -18 -1 -19 -3 -18 -9 7 -4 17 -8 22 -9 13 -1 -20 -21 -25 -21 -5 0 8 -3 8
-9 -2 -16 -26 -24 112 -19 362 3 133 9 251 13 261 8 18 9 18 17 -5 7 -19 11
-21 18 -9z m70 -30 c0 -5 -2 -10 -4 -10 -3 0 -8 5 -11 10 -3 6 -1 10 4 10 6 0
11 -4 11 -10z m2696 -316 c5 -18 1 -29 -11 -38 -15 -10 -16 -16 -6 -35 9 -17
9 -24 -1 -35 -20 -19 -45 8 -28 29 10 12 10 22 0 45 -15 36 -7 60 19 60 14 0
23 -9 27 -26z m176 -199 c2 -77 1 -158 -3 -180 -5 -31 -6 -34 -8 -12 0 16 -5
25 -11 22 -5 -3 -10 0 -10 8 0 8 -9 17 -20 20 -26 7 -26 37 0 44 16 4 20 13
18 37 -1 17 0 63 2 101 l3 70 7 -55 7 -55 1 74 c3 116 10 80 14 -74z m-2770
-188 c-1 -8 2 -18 8 -22 19 -12 10 -25 -17 -25 -20 0 -24 -3 -14 -9 7 -5 10
-14 6 -21 -5 -8 -13 -6 -26 9 -11 12 -25 21 -31 21 -6 0 -2 10 10 23 12 13 22
29 22 35 0 7 10 10 23 8 13 -2 21 -9 19 -19z m-134 -101 c-20 -19 -26 -12 -20
20 4 23 6 24 20 11 13 -14 13 -17 0 -31z m-33 15 c3 -5 1 -12 -5 -16 -5 -3
-10 1 -10 9 0 18 6 21 15 7z m2755 -41 c17 -24 29 -25 44 -6 14 19 66 32 66
17 0 -6 -7 -11 -16 -11 -13 0 -15 -7 -11 -36 4 -23 2 -41 -6 -49 -16 -16 -99
-25 -93 -10 2 5 -3 25 -10 44 -14 32 -11 71 4 71 4 0 14 -9 22 -20z m-3 -357
c-3 -10 -5 -4 -5 12 0 17 2 24 5 18 2 -7 2 -21 0 -30z m40 15 c-3 -8 -6 -5 -6
6 -1 11 2 17 5 13 3 -3 4 -12 1 -19z m-2690 -50 c-3 -8 -6 -5 -6 6 -1 11 2 17
5 13 3 -3 4 -12 1 -19z m1242 -123 c35 -18 46 -42 23 -49 -42 -12 -112 -16
-172 -9 -52 6 -65 12 -68 27 -3 14 0 17 12 13 8 -3 19 0 23 8 14 24 141 32
182 10z m-588 -22 c11 -30 -2 -32 -258 -32 -179 1 -224 3 -234 15 -9 11 -9 17
0 28 10 12 55 14 248 13 231 -2 236 -2 244 -24z m1143 -5 c5 -10 7 -10 12 0 8
16 24 15 24 -2 0 -8 6 -17 13 -19 14 -6 -16 -10 -53 -7 -31 2 -32 3 -24 24 7
19 20 21 28 4z m-1904 -2 c0 -2 3 -12 7 -22 5 -13 3 -16 -10 -11 -15 5 -17 -1
-17 -43 0 -28 -4 -50 -10 -50 -11 0 -14 88 -4 114 5 14 34 24 34 12z m2731
-113 c15 -15 18 -46 22 -218 3 -110 3 -253 0 -317 l-6 -118 -1301 0 c-852 -1
-1295 -4 -1284 -10 10 -7 479 -9 1302 -8 707 2 1287 1 1287 -2 1 -3 2 -26 4
-51 1 -26 5 -51 9 -57 3 -5 -12 -12 -34 -16 -22 -3 -532 -6 -1133 -5 -600 1
-1162 0 -1247 -1 -219 -2 -204 -22 -210 268 -8 399 -4 494 24 537 l17 26 1266
-5 c1203 -5 1267 -6 1284 -23z m76 -440 c-3 -10 -5 -4 -5 12 0 17 2 24 5 18 2
-7 2 -21 0 -30z m-2767 -119 c0 5 9 1 19 -8 24 -22 17 -50 -9 -36 -9 5 -20 6
-24 3 -3 -3 -6 9 -6 28 0 26 3 30 10 19 5 -8 10 -11 10 -6z m-34 -73 c2 -35 0
-40 -12 -30 -11 9 -14 9 -14 0 0 -7 -4 -9 -10 -6 -11 7 -14 68 -4 77 3 3 13 5
22 4 13 -2 17 -14 18 -45z m64 -77 c12 -31 -4 -68 -26 -60 -8 3 -14 1 -14 -4
0 -6 -8 -10 -18 -10 -15 0 -18 7 -17 38 1 20 3 40 4 44 1 6 13 10 54 17 4 0
12 -11 17 -25z m-93 -56 c-2 -13 -4 -3 -4 22 0 25 2 35 4 23 2 -13 2 -33 0
-45z m2917 23 c3 -4 17 -6 31 -3 25 4 25 4 21 -57 -3 -49 -1 -59 9 -51 9 8 15
8 20 1 3 -6 -7 -13 -22 -16 -15 -4 -36 -11 -47 -16 -12 -7 -16 -7 -12 0 4 6
-2 21 -13 33 -21 22 -21 22 -39 2 -11 -11 -22 -26 -26 -34 -3 -8 -4 -1 0 15 3
17 10 31 15 33 5 2 2 16 -5 30 -11 21 -11 31 -3 43 19 25 61 37 71 20z m-2637
-120 c11 9 14 10 9 2 -4 -8 -2 -13 4 -13 6 0 9 -4 5 -10 -3 -5 -12 -7 -20 -4
-19 7 -41 -34 -26 -49 16 -16 13 -37 -4 -31 -9 4 -15 19 -15 41 0 19 -5 43
-10 54 -10 17 -9 18 14 7 20 -9 29 -8 43 3z m-71 -14 c4 -4 0 -7 -9 -7 -9 0
-18 4 -21 9 -7 10 20 9 30 -2z m139 3 c-3 -5 -12 -10 -18 -10 -7 0 -6 4 3 10
19 12 23 12 15 0z m439 4 c9 -3 16 -12 16 -20 0 -10 13 -14 45 -14 25 0 54 -6
65 -12 16 -10 24 -10 40 0 24 15 30 15 30 1 0 -5 -4 -8 -9 -4 -17 10 -23 -15
-7 -31 9 -8 16 -17 16 -20 0 -2 -48 -4 -106 -4 -60 0 -103 4 -100 9 11 18 -6
41 -30 41 -15 0 -24 6 -24 15 0 8 -6 15 -14 15 -8 0 -16 5 -18 11 -3 8 -16 6
-43 -5 -21 -9 -46 -14 -54 -10 -12 4 -6 9 19 19 37 13 147 19 174 9z m1374 0
c19 -6 12 -10 -40 -28 -80 -27 -141 -22 -146 12 -3 21 -1 22 80 22 46 0 93 -3
106 -6z m290 -8 c3 -3 -11 -6 -30 -6 -30 0 -36 -4 -40 -24 -7 -37 2 -43 68
-44 50 0 63 3 73 20 7 11 8 17 2 13 -6 -3 -11 0 -11 9 0 8 -2 21 -5 28 -5 11
3 14 29 13 19 0 39 -4 43 -9 4 -4 -1 -6 -11 -4 -16 2 -19 -3 -20 -34 l-2 -38
71 0 c49 0 65 -3 55 -10 -16 -10 -342 -14 -352 -4 -8 7 3 44 13 44 5 0 6 -7 3
-15 -4 -10 0 -15 13 -15 16 0 20 7 21 36 1 31 -1 35 -21 34 -34 -3 -47 -1 -47
8 0 9 138 7 148 -2z m42 4 c0 -5 -8 -10 -17 -10 -15 0 -16 2 -3 10 19 12 20
12 20 0z m160 -1 c0 -4 -13 -6 -29 -5 -16 0 -27 4 -25 8 6 9 54 6 54 -3z
m-1560 -14 c0 -16 -35 -21 -45 -6 -4 8 9 15 38 20 4 0 7 -6 7 -14z m160 -4 c0
-25 -39 -34 -67 -15 -35 22 -28 34 22 34 37 0 45 -3 45 -19z m-830 -18 c0 -11
5 -9 19 8 19 23 20 23 15 3 -5 -17 1 -25 25 -35 45 -20 38 -29 -21 -30 -29 -1
-83 -3 -120 -4 -38 -1 -68 -1 -68 1 0 12 14 34 22 34 5 0 6 -4 3 -10 -4 -6 8
-10 29 -10 21 0 36 5 36 12 0 17 41 58 51 52 5 -3 9 -12 9 -21z m1925 7 c-3
-5 -12 -10 -18 -10 -7 0 -6 4 3 10 19 12 23 12 15 0z m580 -11 c7 -7 2 -17
-13 -30 -26 -20 -57 -12 -69 18 -12 31 53 40 82 12z m-2765 1 c0 -5 -5 -10
-11 -10 -5 0 -7 5 -4 10 3 6 8 10 11 10 2 0 4 -4 4 -10z m36 -9 c-14 -15 -14
-20 -3 -29 8 -7 17 -9 20 -5 4 3 7 1 7 -6 0 -9 -8 -11 -22 -7 -13 3 -36 6 -51
6 -16 0 -26 4 -23 9 3 5 14 7 24 4 12 -3 22 4 30 21 6 14 17 26 23 26 8 0 6
-7 -5 -19z m154 12 c0 -5 -5 -15 -10 -23 -8 -12 -10 -11 -10 8 0 12 5 22 10
22 6 0 10 -3 10 -7z m2647 -13 c-1 -22 -12 -26 -23 -9 -3 6 0 15 7 20 18 12
18 12 16 -11z m-2482 0 c-3 -5 -11 -10 -16 -10 -6 0 -7 5 -4 10 3 6 11 10 16
10 6 0 7 -4 4 -10z m55 0 c13 -9 13 -10 0 -10 -8 0 -22 5 -30 10 -13 9 -13 10
0 10 8 0 22 -5 30 -10z m460 -16 c0 -2 -7 -4 -15 -4 -8 0 -15 4 -15 10 0 5 7
7 15 4 8 -4 15 -8 15 -10z m1550 6 c0 -5 -4 -10 -10 -10 -5 0 -10 5 -10 10 0
6 5 10 10 10 6 0 10 -4 10 -10z m395 -30 c7 0 15 -7 19 -15 4 -12 -5 -15 -50
-15 -35 0 -53 4 -49 10 4 6 10 8 14 5 5 -2 17 4 27 14 10 10 21 14 22 10 2 -5
10 -9 17 -9z m-2238 -6 c-3 -3 -12 -4 -19 -1 -8 3 -5 6 6 6 11 1 17 -2 13 -5z"/>
<path d="M3040 1910 c0 -5 5 -10 11 -10 5 0 7 5 4 10 -3 6 -8 10 -11 10 -2 0
-4 -4 -4 -10z"/>
<path d="M2940 1680 c0 -5 5 -10 10 -10 6 0 10 5 10 10 0 6 -4 10 -10 10 -5 0
-10 -4 -10 -10z"/>
<path d="M311 1041 c-15 -9 -11 -107 4 -104 11 3 25 102 15 108 -3 2 -12 0
-19 -4z"/>
<path d="M1115 1041 c-3 -6 -2 -11 4 -11 5 0 11 -21 13 -47 4 -65 23 -56 23 9
0 41 -4 53 -17 56 -9 2 -19 -2 -23 -7z"/>
<path d="M359 1033 c-1 -5 -2 -27 -3 -50 -1 -42 0 -43 31 -43 20 0 36 7 42 18
10 16 10 16 11 0 0 -11 8 -18 19 -18 14 0 18 6 16 25 -2 14 0 25 5 25 4 0 11
-11 14 -25 4 -14 11 -25 16 -25 6 0 16 11 22 25 15 33 27 32 25 -1 -2 -23 2
-27 26 -28 16 -1 30 1 33 5 2 4 18 4 34 -1 37 -11 73 -2 66 16 -4 11 2 13 25
9 22 -4 30 -2 26 7 -2 7 -14 13 -26 12 -13 0 -21 5 -21 16 0 14 -7 16 -37 13
-21 -2 -40 -9 -44 -15 -5 -7 -9 -7 -13 1 -14 22 -35 11 -39 -21 l-4 -33 -1 31
c-2 26 -7 33 -28 37 -21 4 -28 0 -32 -16 -5 -20 -5 -20 -13 0 -6 15 -14 19
-38 15 -17 -2 -37 0 -44 5 -17 14 -67 25 -68 16z m46 -48 c0 -10 -6 -20 -12
-22 -9 -3 -12 4 -11 21 3 29 23 30 23 1z m265 -15 c0 -11 -2 -20 -4 -20 -2 0
-6 9 -9 20 -3 11 -1 20 4 20 5 0 9 -9 9 -20z"/>
<path d="M777 1033 c-2 -5 -2 -28 1 -53 l4 -45 118 0 c121 0 159 10 133 36 -6
6 -9 18 -6 26 4 11 0 14 -18 11 -17 -2 -24 -10 -24 -25 -1 -35 -12 -37 -20 -4
-8 37 -32 41 -41 6 -3 -14 -10 -25 -14 -25 -5 0 -7 11 -4 25 4 20 0 25 -18 26
-13 1 -27 1 -31 0 -4 -1 -15 5 -23 14 -16 16 -50 20 -57 8z m83 -61 c0 -15 -2
-15 -10 -2 -13 20 -13 33 0 25 6 -3 10 -14 10 -23z"/>
<path d="M1063 1012 c-23 -3 -33 -22 -12 -22 6 0 9 -12 7 -27 -2 -20 2 -28 12
-28 10 0 14 8 12 24 -2 13 2 27 10 32 18 11 -1 26 -29 21z"/>
<path d="M1618 320 c-11 -26 -13 -42 -6 -46 6 -4 14 0 19 7 8 12 10 12 18 0
18 -28 30 -2 17 36 -17 50 -28 50 -48 3z"/>
<path d="M1680 350 c0 -5 5 -10 10 -10 6 0 10 -16 10 -35 0 -19 5 -35 10 -35
6 0 10 17 10 38 0 28 4 39 15 39 11 0 15 -11 15 -39 0 -26 4 -38 14 -38 8 0
17 6 19 13 4 10 6 10 6 0 1 -7 8 -13 16 -13 18 0 18 2 4 34 -9 20 -9 29 1 41
10 12 10 15 -4 15 -9 0 -16 -4 -16 -10 0 -5 -5 -10 -11 -10 -5 0 -7 5 -4 10 4
6 -13 10 -44 10 -28 0 -51 -4 -51 -10z"/>
<path d="M1872 333 c-5 -16 -13 -36 -18 -47 -15 -39 17 -10 36 32 15 33 16 42
5 42 -7 0 -18 -12 -23 -27z"/>
<path d="M2288 315 c3 -36 8 -45 23 -45 10 0 29 10 41 22 l21 21 -5 -21 c-6
-20 -2 -22 38 -22 37 0 44 3 44 20 0 12 7 20 18 20 16 1 16 1 0 14 -22 16 -24
30 -3 23 8 -4 17 -2 20 3 4 6 -20 10 -60 10 -42 0 -64 -4 -60 -10 3 -5 2 -10
-4 -10 -5 0 -13 5 -16 10 -3 6 -18 10 -33 10 -26 0 -27 -2 -24 -45z m142 5 c0
-23 -4 -30 -20 -30 -22 0 -27 15 -7 23 9 4 9 8 -2 15 -11 8 -10 11 5 15 10 2
20 5 22 6 1 0 2 -12 2 -29z m-100 1 c0 -11 -4 -23 -10 -26 -6 -4 -10 5 -10 19
0 14 5 26 10 26 6 0 10 -9 10 -19z"/>
<path d="M2530 320 c-7 -22 -11 -43 -7 -46 7 -7 37 49 37 71 0 29 -17 15 -30
-25z"/>
<path d="M3035 211 c-3 -5 -1 -12 5 -16 5 -3 10 1 10 9 0 18 -6 21 -15 7z"/>
<path d="M2960 131 c0 -6 5 -13 10 -16 6 -3 10 1 10 9 0 9 -4 16 -10 16 -5 0
-10 -4 -10 -9z"/>
<path d="M3000 130 c0 -5 5 -10 10 -10 6 0 10 5 10 10 0 6 -4 10 -10 10 -5 0
-10 -4 -10 -10z"/>
</g>
</svg>
