<svg width="33" height="33" viewBox="0 0 33 33" fill="none" xmlns="http://www.w3.org/2000/svg">
<rect width="20.2628" height="29.5246" rx="4" transform="matrix(0.99226 0.124268 -0.127605 0.991814 12.1594 0.534668)" fill="#7400CC"/>
<rect x="0.432369" y="0.558095" width="17.333" height="26.6198" rx="3.5" transform="matrix(0.992247 0.124364 -0.127509 0.991826 13.0699 1.54991)" stroke="white"/>
<ellipse cx="4.34202" cy="9.04785" rx="4.34202" ry="9.04785" transform="matrix(0.991853 0.127388 -0.13081 0.991407 17.1625 6.87415)" fill="white"/>
<rect width="20.2672" height="29.518" rx="4" transform="matrix(0.999803 -0.0197768 0.0203169 0.999795 5.88464 1.59192)" fill="#7400CC"/>
<rect x="0.510111" y="0.490058" width="17.337" height="26.6136" rx="3.5" transform="matrix(0.999805 -0.0196765 0.0204167 0.999793 6.85911 2.53492)" stroke="white"/>
<ellipse cx="4.34297" cy="9.04583" rx="4.34297" ry="9.04583" transform="matrix(0.999862 -0.0166315 0.0170858 0.999854 11.7711 7.14417)" fill="white"/>
<rect width="20.2603" height="29.5282" rx="4" transform="matrix(0.986847 -0.161575 0.165874 0.986161 0.010376 3.2887)" fill="#7400CC"/>
<rect x="0.576415" y="0.412332" width="17.3308" height="26.6232" rx="3.5" transform="matrix(0.986862 -0.161482 0.165968 0.986145 1.05968 4.17094)" stroke="white"/>
<path d="M8.7808 10.8937C8.69314 10.8827 8.73505 10.6406 8.73505 10.5735C8.73505 10.3713 8.73862 10.2761 8.86212 10.116C9.00592 9.9296 9.14031 9.75336 9.30942 9.58739C9.56852 9.33308 9.87314 9.23064 10.1938 9.07909C10.7916 8.79663 11.3488 8.69788 11.9983 8.69788C12.4617 8.69788 12.8331 8.90314 13.2283 9.12992C14.8838 10.0798 14.7894 12.679 14.1687 14.2027C14.116 14.3319 13.9612 14.5215 13.879 14.6449C13.7834 14.7882 13.7076 14.9058 13.6299 15.0566C13.5945 15.1252 13.5425 15.1437 13.4952 15.1989C13.4372 15.2666 13.4652 15.3374 13.4367 15.4124C13.3819 15.557 13.213 15.6364 13.1623 15.7885C13.129 15.8883 13.056 16.0051 12.9895 16.0834C12.8981 16.1908 12.91 16.3597 12.8065 16.4747C12.6659 16.6309 12.6043 16.9893 12.5422 17.1914C12.4811 17.3899 12.4485 17.6285 12.4405 17.837C12.4318 18.0633 12.3947 18.2972 12.3947 18.5333C12.3947 18.9351 12.349 19.3167 12.349 19.7227" stroke="white" stroke-width="3" stroke-linecap="round"/>
<path d="M12.9895 23.6569C12.8631 23.6411 12.9871 23.4923 13.0581 23.4765C13.1893 23.4473 13.2163 23.7494 13.1267 23.7941" stroke="white" stroke-width="3" stroke-linecap="round"/>
</svg>
