<svg width="334" height="94" viewBox="0 0 334 94" fill="none" xmlns="http://www.w3.org/2000/svg">
<rect x="1.5" y="1.5" width="330.429" height="90.5013" rx="8.5" fill="#363636" stroke="#F7EE12" stroke-width="3"/>
<circle cx="68.8028" cy="45.8686" r="17.9059" fill="#FFDA56" stroke="#D99C00" stroke-width="3"/>
<path d="M63.5103 38.8119H71.4491C71.7431 38.8119 72.5076 38.9883 73.2133 39.6939C73.9189 40.3996 74.0954 41.7522 74.0954 42.3402V44.9865C74.0954 45.5745 73.0369 46.7506 72.3312 46.7506C71.6255 46.7506 70.567 46.7506 70.567 46.7506M70.567 46.7506H64.3924V53.8073M70.567 46.7506L74.9775 53.8073" stroke="#D99C00" stroke-width="3"/>
<path d="M0 23H12V69H0V23Z" fill="#F7EE12"/>
<rect x="321" y="23" width="12" height="46" fill="#F7EE12"/>
<rect x="207" y="32" width="102" height="28" fill="#D9D9D9"/>
<path d="M115.428 38.64V36.648H119.94V54H117.732V38.64H115.428ZM123.691 45.144C123.691 42.392 124.139 40.248 125.035 38.712C125.931 37.16 127.499 36.384 129.739 36.384C131.963 36.384 133.523 37.16 134.419 38.712C135.315 40.248 135.763 42.392 135.763 45.144C135.763 47.944 135.315 50.12 134.419 51.672C133.523 53.224 131.963 54 129.739 54C127.499 54 125.931 53.224 125.035 51.672C124.139 50.12 123.691 47.944 123.691 45.144ZM133.603 45.144C133.603 43.752 133.507 42.576 133.315 41.616C133.139 40.64 132.763 39.856 132.187 39.264C131.627 38.672 130.811 38.376 129.739 38.376C128.651 38.376 127.819 38.672 127.243 39.264C126.683 39.856 126.307 40.64 126.115 41.616C125.939 42.576 125.851 43.752 125.851 45.144C125.851 46.584 125.939 47.792 126.115 48.768C126.307 49.744 126.683 50.528 127.243 51.12C127.819 51.712 128.651 52.008 129.739 52.008C130.811 52.008 131.627 51.712 132.187 51.12C132.763 50.528 133.139 49.744 133.315 48.768C133.507 47.792 133.603 46.584 133.603 45.144ZM138.761 45.144C138.761 42.392 139.209 40.248 140.105 38.712C141.001 37.16 142.569 36.384 144.809 36.384C147.033 36.384 148.593 37.16 149.489 38.712C150.385 40.248 150.833 42.392 150.833 45.144C150.833 47.944 150.385 50.12 149.489 51.672C148.593 53.224 147.033 54 144.809 54C142.569 54 141.001 53.224 140.105 51.672C139.209 50.12 138.761 47.944 138.761 45.144ZM148.673 45.144C148.673 43.752 148.577 42.576 148.385 41.616C148.209 40.64 147.833 39.856 147.257 39.264C146.697 38.672 145.881 38.376 144.809 38.376C143.721 38.376 142.889 38.672 142.313 39.264C141.753 39.856 141.377 40.64 141.185 41.616C141.009 42.576 140.921 43.752 140.921 45.144C140.921 46.584 141.009 47.792 141.185 48.768C141.377 49.744 141.753 50.528 142.313 51.12C142.889 51.712 143.721 52.008 144.809 52.008C145.881 52.008 146.697 51.712 147.257 51.12C147.833 50.528 148.209 49.744 148.385 48.768C148.577 47.792 148.673 46.584 148.673 45.144ZM153.832 45.144C153.832 42.392 154.28 40.248 155.176 38.712C156.072 37.16 157.64 36.384 159.88 36.384C162.104 36.384 163.664 37.16 164.56 38.712C165.456 40.248 165.904 42.392 165.904 45.144C165.904 47.944 165.456 50.12 164.56 51.672C163.664 53.224 162.104 54 159.88 54C157.64 54 156.072 53.224 155.176 51.672C154.28 50.12 153.832 47.944 153.832 45.144ZM163.744 45.144C163.744 43.752 163.648 42.576 163.456 41.616C163.28 40.64 162.904 39.856 162.328 39.264C161.768 38.672 160.952 38.376 159.88 38.376C158.792 38.376 157.96 38.672 157.384 39.264C156.824 39.856 156.448 40.64 156.256 41.616C156.08 42.576 155.992 43.752 155.992 45.144C155.992 46.584 156.08 47.792 156.256 48.768C156.448 49.744 156.824 50.528 157.384 51.12C157.96 51.712 158.792 52.008 159.88 52.008C160.952 52.008 161.768 51.712 162.328 51.12C162.904 50.528 163.28 49.744 163.456 48.768C163.648 47.792 163.744 46.584 163.744 45.144ZM168.902 45.144C168.902 42.392 169.35 40.248 170.246 38.712C171.142 37.16 172.71 36.384 174.95 36.384C177.174 36.384 178.734 37.16 179.63 38.712C180.526 40.248 180.974 42.392 180.974 45.144C180.974 47.944 180.526 50.12 179.63 51.672C178.734 53.224 177.174 54 174.95 54C172.71 54 171.142 53.224 170.246 51.672C169.35 50.12 168.902 47.944 168.902 45.144ZM178.814 45.144C178.814 43.752 178.718 42.576 178.526 41.616C178.35 40.64 177.974 39.856 177.398 39.264C176.838 38.672 176.022 38.376 174.95 38.376C173.862 38.376 173.03 38.672 172.454 39.264C171.894 39.856 171.518 40.64 171.326 41.616C171.15 42.576 171.062 43.752 171.062 45.144C171.062 46.584 171.15 47.792 171.326 48.768C171.518 49.744 171.894 50.528 172.454 51.12C173.03 51.712 173.862 52.008 174.95 52.008C176.022 52.008 176.838 51.712 177.398 51.12C177.974 50.528 178.35 49.744 178.526 48.768C178.718 47.792 178.814 46.584 178.814 45.144Z" fill="white"/>
<path d="M225.428 39.64V37.648H229.94V55H227.732V39.64H225.428ZM233.691 46.144C233.691 43.392 234.139 41.248 235.035 39.712C235.931 38.16 237.499 37.384 239.739 37.384C241.963 37.384 243.523 38.16 244.419 39.712C245.315 41.248 245.763 43.392 245.763 46.144C245.763 48.944 245.315 51.12 244.419 52.672C243.523 54.224 241.963 55 239.739 55C237.499 55 235.931 54.224 235.035 52.672C234.139 51.12 233.691 48.944 233.691 46.144ZM243.603 46.144C243.603 44.752 243.507 43.576 243.315 42.616C243.139 41.64 242.763 40.856 242.187 40.264C241.627 39.672 240.811 39.376 239.739 39.376C238.651 39.376 237.819 39.672 237.243 40.264C236.683 40.856 236.307 41.64 236.115 42.616C235.939 43.576 235.851 44.752 235.851 46.144C235.851 47.584 235.939 48.792 236.115 49.768C236.307 50.744 236.683 51.528 237.243 52.12C237.819 52.712 238.651 53.008 239.739 53.008C240.811 53.008 241.627 52.712 242.187 52.12C242.763 51.528 243.139 50.744 243.315 49.768C243.507 48.792 243.603 47.584 243.603 46.144ZM248.761 46.144C248.761 43.392 249.209 41.248 250.105 39.712C251.001 38.16 252.569 37.384 254.809 37.384C257.033 37.384 258.593 38.16 259.489 39.712C260.385 41.248 260.833 43.392 260.833 46.144C260.833 48.944 260.385 51.12 259.489 52.672C258.593 54.224 257.033 55 254.809 55C252.569 55 251.001 54.224 250.105 52.672C249.209 51.12 248.761 48.944 248.761 46.144ZM258.673 46.144C258.673 44.752 258.577 43.576 258.385 42.616C258.209 41.64 257.833 40.856 257.257 40.264C256.697 39.672 255.881 39.376 254.809 39.376C253.721 39.376 252.889 39.672 252.313 40.264C251.753 40.856 251.377 41.64 251.185 42.616C251.009 43.576 250.921 44.752 250.921 46.144C250.921 47.584 251.009 48.792 251.185 49.768C251.377 50.744 251.753 51.528 252.313 52.12C252.889 52.712 253.721 53.008 254.809 53.008C255.881 53.008 256.697 52.712 257.257 52.12C257.833 51.528 258.209 50.744 258.385 49.768C258.577 48.792 258.673 47.584 258.673 46.144ZM263.832 46.144C263.832 43.392 264.28 41.248 265.176 39.712C266.072 38.16 267.64 37.384 269.88 37.384C272.104 37.384 273.664 38.16 274.56 39.712C275.456 41.248 275.904 43.392 275.904 46.144C275.904 48.944 275.456 51.12 274.56 52.672C273.664 54.224 272.104 55 269.88 55C267.64 55 266.072 54.224 265.176 52.672C264.28 51.12 263.832 48.944 263.832 46.144ZM273.744 46.144C273.744 44.752 273.648 43.576 273.456 42.616C273.28 41.64 272.904 40.856 272.328 40.264C271.768 39.672 270.952 39.376 269.88 39.376C268.792 39.376 267.96 39.672 267.384 40.264C266.824 40.856 266.448 41.64 266.256 42.616C266.08 43.576 265.992 44.752 265.992 46.144C265.992 47.584 266.08 48.792 266.256 49.768C266.448 50.744 266.824 51.528 267.384 52.12C267.96 52.712 268.792 53.008 269.88 53.008C270.952 53.008 271.768 52.712 272.328 52.12C272.904 51.528 273.28 50.744 273.456 49.768C273.648 48.792 273.744 47.584 273.744 46.144ZM278.902 46.144C278.902 43.392 279.35 41.248 280.246 39.712C281.142 38.16 282.71 37.384 284.95 37.384C287.174 37.384 288.734 38.16 289.63 39.712C290.526 41.248 290.974 43.392 290.974 46.144C290.974 48.944 290.526 51.12 289.63 52.672C288.734 54.224 287.174 55 284.95 55C282.71 55 281.142 54.224 280.246 52.672C279.35 51.12 278.902 48.944 278.902 46.144ZM288.814 46.144C288.814 44.752 288.718 43.576 288.526 42.616C288.35 41.64 287.974 40.856 287.398 40.264C286.838 39.672 286.022 39.376 284.95 39.376C283.862 39.376 283.03 39.672 282.454 40.264C281.894 40.856 281.518 41.64 281.326 42.616C281.15 43.576 281.062 44.752 281.062 46.144C281.062 47.584 281.15 48.792 281.326 49.768C281.518 50.744 281.894 51.528 282.454 52.12C283.03 52.712 283.862 53.008 284.95 53.008C286.022 53.008 286.838 52.712 287.398 52.12C287.974 51.528 288.35 50.744 288.526 49.768C288.718 48.792 288.814 47.584 288.814 46.144Z" fill="#BF8A00"/>
</svg>
