<svg width="40" height="40" viewBox="0 0 40 40" fill="none" xmlns="http://www.w3.org/2000/svg">
<path d="M37.7088 19.8686C37.7088 29.7577 29.692 37.7745 19.8028 37.7745C9.91367 37.7745 1.89691 29.7577 1.89691 19.8686C1.89691 9.97939 9.91367 1.96263 19.8028 1.96263C29.692 1.96263 37.7088 9.97939 37.7088 19.8686Z" fill="#FFDA56" stroke="#D99C00" stroke-width="3"/>
<path d="M14.5103 12.8119H22.4491C22.7431 12.8119 23.5076 12.9883 24.2133 13.6939C24.9189 14.3996 25.0954 15.7522 25.0954 16.3402V18.9865C25.0954 19.5745 24.0369 20.7506 23.3312 20.7506C22.6255 20.7506 21.567 20.7506 21.567 20.7506M21.567 20.7506H15.3924V27.8073M21.567 20.7506L25.9775 27.8073" stroke="#D99C00" stroke-width="3"/>
</svg>
