<svg width="32" height="20" viewBox="0 0 32 20" fill="none" xmlns="http://www.w3.org/2000/svg">
<path d="M15.0195 1.55154L3.09894 8.25685C1.73963 9.02146 1.73963 10.9785 3.09894 11.7432L15.0195 18.4485C15.6283 18.7909 16.3717 18.7909 16.9805 18.4485L28.9011 11.7432C30.2604 10.9785 30.2604 9.02146 28.9011 8.25685L16.9805 1.55154C16.3717 1.20908 15.6283 1.20908 15.0195 1.55154Z" fill="#58555B" stroke="#58555B"/>
<path d="M28.4806 9.13176L16.4961 2.28351C16.1887 2.10783 15.8113 2.10783 15.5039 2.28351L3.51943 9.13176C2.84761 9.51565 2.84761 10.4843 3.51942 10.8682L15.5039 17.7165C15.8113 17.8922 16.1887 17.8922 16.4961 17.7165L28.4806 10.8682C29.1524 10.4843 29.1524 9.51565 28.4806 9.13176Z" stroke="white"/>
<ellipse cx="15.8124" cy="9.83054" rx="5.61148" ry="3.72455" transform="rotate(25.2168 15.8124 9.83054)" fill="white"/>
</svg>
