<svg width="32" height="26" viewBox="0 0 32 26" fill="none" xmlns="http://www.w3.org/2000/svg">
<path d="M15.0195 7.55154L3.09894 14.2568C1.73963 15.0215 1.73963 16.9785 3.09894 17.7432L15.0195 24.4485C15.6283 24.7909 16.3717 24.7909 16.9805 24.4485L28.9011 17.7432C30.2604 16.9785 30.2604 15.0215 28.9011 14.2568L16.9805 7.55154C16.3717 7.20908 15.6283 7.20908 15.0195 7.55154Z" fill="#58555B" stroke="#58555B"/>
<path d="M28.4806 15.1318L16.4961 8.28351C16.1887 8.10783 15.8113 8.10783 15.5039 8.28351L3.51943 15.1318C2.84761 15.5157 2.84761 16.4843 3.51942 16.8682L15.5039 23.7165C15.8113 23.8922 16.1887 23.8922 16.4961 23.7165L28.4806 16.8682C29.1524 16.4843 29.1524 15.5157 28.4806 15.1318Z" stroke="white"/>
<path d="M15.0195 4.55154L3.09894 11.2568C1.73963 12.0215 1.73963 13.9785 3.09894 14.7432L15.0195 21.4485C15.6283 21.7909 16.3717 21.7909 16.9805 21.4485L28.9011 14.7432C30.2604 13.9785 30.2604 12.0215 28.9011 11.2568L16.9805 4.55154C16.3717 4.20908 15.6283 4.20908 15.0195 4.55154Z" fill="#58555B" stroke="#58555B"/>
<path d="M28.4806 12.1318L16.4961 5.28351C16.1887 5.10783 15.8113 5.10783 15.5039 5.28351L3.51943 12.1318C2.84761 12.5157 2.84761 13.4843 3.51942 13.8682L15.5039 20.7165C15.8113 20.8922 16.1887 20.8922 16.4961 20.7165L28.4806 13.8682C29.1524 13.4843 29.1524 12.5157 28.4806 12.1318Z" stroke="white"/>
<path d="M15.0195 1.55154L3.09894 8.25685C1.73963 9.02146 1.73963 10.9785 3.09894 11.7432L15.0195 18.4485C15.6283 18.7909 16.3717 18.7909 16.9805 18.4485L28.9011 11.7432C30.2604 10.9785 30.2604 9.02146 28.9011 8.25685L16.9805 1.55154C16.3717 1.20908 15.6283 1.20908 15.0195 1.55154Z" fill="#58555B" stroke="#58555B"/>
<path d="M28.4806 9.13176L16.4961 2.28351C16.1887 2.10783 15.8113 2.10783 15.5039 2.28351L3.51943 9.13176C2.84761 9.51565 2.84761 10.4843 3.51942 10.8682L15.5039 17.7165C15.8113 17.8922 16.1887 17.8922 16.4961 17.7165L28.4806 10.8682C29.1524 10.4843 29.1524 9.51565 28.4806 9.13176Z" stroke="white"/>
<ellipse cx="16.3213" cy="9.83648" rx="5.59735" ry="3.72455" transform="rotate(25.2168 16.3213 9.83648)" fill="white"/>
</svg>
